<svg width="512" height="512" viewBox="0 0 512 512" fill="none" xmlns="http://www.w3.org/2000/svg">
  <rect width="512" height="512" rx="64" fill="#8b5cf6"/>
  <g fill="white">
    <!-- Professor icon -->
    <circle cx="180" cy="180" r="40"/>
    <rect x="140" y="240" width="80" height="20" rx="10"/>
    <rect x="150" y="270" width="60" height="40" rx="8"/>

    <!-- Student icon -->
    <circle cx="332" cy="180" r="35"/>
    <rect x="297" y="235" width="70" height="18" rx="9"/>
    <rect x="305" y="263" width="54" height="35" rx="7"/>

    <!-- Connection line -->
    <path d="M220 200 L292 200" stroke="white" stroke-width="8" stroke-linecap="round"/>
    <circle cx="220" cy="200" r="8" fill="white"/>
    <circle cx="292" cy="200" r="8" fill="white"/>

    <!-- Workout/dumbbell icon -->
    <rect x="235" y="340" width="42" height="12" rx="6" fill="white"/>
    <circle cx="230" cy="346" r="8" fill="white"/>
    <circle cx="282" cy="346" r="8" fill="white"/>

    <!-- Progress arrows -->
    <path d="M200 380 L240 380 L235 375 M235 385 L240 380" stroke="white" stroke-width="4" stroke-linecap="round" stroke-linejoin="round"/>
    <path d="M272 380 L312 380 L307 375 M307 385 L312 380" stroke="white" stroke-width="4" stroke-linecap="round" stroke-linejoin="round"/>
  </g>
</svg>
